<svg xmlns="http://www.w3.org/2000/svg" width="32.733" height="26.49" viewBox="0 0 32.733 26.49">
  <path id="Path_188" data-name="Path 188" d="M8.8,405.3c4.154,4.5,8.682,7.484,14.018,7.2-.076-6.819,4.979-10.762,12.123-5.909l4.016-1.743-2.273,3.41,3.107-.53L36.687,410.6c-.758,19.321-17.427,24.019-29.627,17.654C11.174,428,14.4,427.2,16.3,425.6a7.759,7.759,0,0,1-5.759-4.774l2.5-.151c-2.746-.933-4.332-3.252-5-6.667l2.652.227C8.065,412.01,7.736,408.916,8.8,405.3" transform="translate(-7.06 -404.431)" fill="#25dba8"/>
</svg>
