<svg xmlns="http://www.w3.org/2000/svg" width="13.895" height="23.158" viewBox="0 0 13.895 23.158">
  <path id="Path_646" data-name="Path 646" d="M11.655,0H2.24A2.24,2.24,0,0,0,0,2.24V20.918a2.24,2.24,0,0,0,2.24,2.24h9.414a2.24,2.24,0,0,0,2.24-2.24V2.24A2.24,2.24,0,0,0,11.655,0m1.164,20.693a1.23,1.23,0,0,1-1.23,1.23H2.306a1.23,1.23,0,0,1-1.23-1.23V2.465a1.23,1.23,0,0,1,1.23-1.23H4.335v.658a.854.854,0,0,0,.854.854H8.707a.854.854,0,0,0,.854-.854V1.235h2.029a1.23,1.23,0,0,1,1.23,1.23Z" fill="#25dba8"/>
</svg>
