<svg xmlns="http://www.w3.org/2000/svg" width="37.811" height="27.523" viewBox="0 0 37.811 27.523">
  <path id="Path_189" data-name="Path 189" d="M34.31,797.577c-3.152-2.8-8.479-3.462-8.479-3.462l-.4.932c3.862.4,7.9,4.173,7.9,4.173A25.1,25.1,0,0,0,20.6,795.846,25.1,25.1,0,0,0,7.865,799.22s4.04-3.774,7.9-4.173l-.4-.932s-5.327.665-8.479,3.462a39.074,39.074,0,0,0-5.194,19.044s4.617,5.1,11.142,5.016l1.376-1.776s-4.883-1.687-7.28-4.927A22.986,22.986,0,0,0,20.6,819.106a22.986,22.986,0,0,0,13.666-4.173c-2.4,3.24-7.28,4.927-7.28,4.927l1.376,1.776c6.526.089,11.142-5.016,11.142-5.016a39.071,39.071,0,0,0-5.193-19.044m-19.431,15.4a3.368,3.368,0,0,1,0-6.7,3.368,3.368,0,0,1,0,6.7m11.44,0a3.368,3.368,0,0,1,0-6.7,3.368,3.368,0,0,1,0,6.7" transform="translate(-1.694 -794.115)" fill="#25dba8"/>
</svg>
