<svg xmlns="http://www.w3.org/2000/svg" width="24.6" height="18.198" viewBox="0 0 24.6 18.198">
  <path id="Path_645" data-name="Path 645" d="M118.274,1.4H96.534a1.43,1.43,0,0,0-1.43,1.43v11.9a1.43,1.43,0,0,0,1.43,1.43h9.332l-.893,2.122h-1.721a1.317,1.317,0,0,0-1.317,1.316h10.937a1.316,1.316,0,0,0-1.316-1.316h-1.721l-.893-2.122h9.332a1.43,1.43,0,0,0,1.43-1.43V2.835a1.43,1.43,0,0,0-1.43-1.43m.423,12.933a.733.733,0,0,1-.733.733H96.844a.733.733,0,0,1-.733-.733V3.232a.733.733,0,0,1,.733-.733h21.12a.733.733,0,0,1,.733.733Z" transform="translate(-95.104 -1.405)" fill="#25dba8"/>
</svg>
